<svg width="67" height="67" xmlns="http://www.w3.org/2000/svg" xmlns:xlink="http://www.w3.org/1999/xlink" xml:space="preserve" overflow="hidden"><g transform="translate(-418 -241)"><path d="M477.245 246.095C476.521 246.128 475.833 246.416 475.302 246.909L445.378 274.989 436.96 284.66C436.234 284.437 435.48 284.322 434.721 284.321 432.719 284.315 430.798 285.107 429.382 286.52 427.218 288.754 427.846 291.406 427.497 293.988 427.253 296.885 425.303 299.357 422.542 300.269 424.334 301.607 426.517 302.32 428.754 302.297 432.995 302.297 437.281 299.977 440.06 297.198 441.952 295.289 442.691 292.521 442.002 289.924L451.791 281.403 480.003 251.458C481.145 250.217 481.065 248.285 479.824 247.143 479.812 247.132 479.8 247.121 479.787 247.11 479.13 246.414 478.2 246.042 477.245 246.095ZM438.992 296.295C436.714 298.539 432.856 300.905 428.753 300.905 428.469 300.905 428.19 300.893 427.915 300.869 427.912 300.868 427.91 300.864 427.911 300.861 427.912 300.858 427.913 300.857 427.915 300.856 429.805 300.135 431.514 299.009 432.923 297.558 433.181 297.27 433.157 296.828 432.869 296.571 432.582 296.313 432.14 296.337 431.882 296.624 430.224 298.301 428.126 299.475 425.829 300.012 425.825 300.013 425.822 300.01 425.822 300.006 425.821 300.004 425.822 300.002 425.824 300 427.611 298.558 428.72 296.44 428.888 294.149 428.984 293.423 429.01 292.716 429.035 292.032 429.105 290.205 429.156 288.763 430.373 287.507 432.797 285.103 436.712 285.12 439.115 287.545 439.18 287.61 439.244 287.677 439.306 287.746 441.498 290.223 441.359 293.985 438.992 296.295ZM441.483 288.528C440.805 287.12 439.695 285.964 438.316 285.227L444.577 278.029 448.752 282.202ZM450.825 280.398 449.807 281.284 445.498 276.973 446.362 275.98 446.931 275.445 451.341 279.854ZM478.981 250.508 452.295 278.838 447.947 274.49 476.276 247.909C477.02 247.271 478.139 247.348 478.789 248.083 479.927 249.287 479.219 250.248 478.981 250.508Z"/></g></svg>