<svg width="48" height="48" xmlns="http://www.w3.org/2000/svg" xmlns:xlink="http://www.w3.org/1999/xlink" xml:space="preserve" overflow="hidden"><g transform="translate(-864 -241)"><path d="M906.444 244.65C905.926 244.674 905.433 244.88 905.052 245.233L883.614 265.35 877.583 272.279C877.063 272.119 876.523 272.037 875.979 272.036 874.545 272.032 873.169 272.599 872.154 273.612 870.604 275.211 871.054 277.112 870.804 278.961 870.629 281.037 869.232 282.808 867.254 283.461 868.538 284.42 870.102 284.93 871.704 284.914 874.743 284.914 877.813 283.253 879.804 281.261 881.16 279.894 881.689 277.911 881.195 276.05L888.208 269.945 908.42 248.492C909.238 247.603 909.181 246.219 908.292 245.401 908.283 245.393 908.274 245.385 908.266 245.377 907.795 244.878 907.129 244.612 906.444 244.65ZM879.039 280.615C877.407 282.222 874.643 283.917 871.703 283.917 871.5 283.917 871.3 283.909 871.104 283.892 871.101 283.891 871.099 283.888 871.1 283.885 871.101 283.884 871.102 283.883 871.104 283.882 872.457 283.365 873.682 282.559 874.691 281.519 874.876 281.313 874.859 280.996 874.653 280.812 874.447 280.627 874.13 280.644 873.945 280.85 872.757 282.051 871.254 282.893 869.609 283.277 869.606 283.278 869.604 283.276 869.604 283.273 869.603 283.271 869.604 283.27 869.605 283.269 870.885 282.236 871.68 280.718 871.8 279.077 871.869 278.557 871.888 278.05 871.906 277.56 871.956 276.251 871.992 275.219 872.864 274.319 874.601 272.596 877.405 272.608 879.128 274.345 879.174 274.393 879.22 274.44 879.264 274.49 880.834 276.265 880.735 278.959 879.039 280.615ZM880.824 275.05C880.338 274.041 879.543 273.213 878.555 272.685L883.041 267.528 886.031 270.518ZM887.516 269.225 886.787 269.861 883.7 266.771 884.319 266.06 884.727 265.677 887.886 268.836ZM907.688 247.811 888.57 268.108 885.455 264.992 905.75 245.95C906.283 245.493 907.085 245.548 907.55 246.074 908.365 246.937 907.859 247.626 907.688 247.811Z"/></g></svg>