<svg width="96" height="96" xmlns="http://www.w3.org/2000/svg" xmlns:xlink="http://www.w3.org/1999/xlink" xml:space="preserve" overflow="hidden"><g transform="translate(-358 -298)"><path d="M446.1 307.4C444 305.3 441.6 305.9 440.7 306.8L400.3 344.2 391.3 355.3C390.7 356.4 391.3 358.3 392.7 359.7L393.6 360.6C395 362 396.9 362.7 398 362L409.1 353 446.7 312.6C447.7 311.5 448.1 309.5 446.1 307.4Z"/><path d="M374.3 363.7C371.2 366.9 372.1 370.7 371.6 374.4 371 380.8 365.9 382.9 364.5 383.4 372.7 389.5 383.6 385 389.6 379 393.8 374.8 393.8 367.9 389.6 363.7 385.4 359.5 378.5 359.5 374.3 363.7Z"/></g></svg>