<svg width="96" height="96" xmlns="http://www.w3.org/2000/svg" xmlns:xlink="http://www.w3.org/1999/xlink" xml:space="preserve" overflow="hidden"><g transform="translate(-73 -241)"><path d="M157.888 248.3C156.852 248.348 155.866 248.761 155.105 249.466L112.228 289.7 100.166 303.558C99.1267 303.237 98.0455 303.074 96.958 303.072 94.0905 303.064 91.3378 304.198 89.308 306.223 86.208 309.423 87.108 313.223 86.608 316.923 86.2576 321.074 83.4637 324.616 79.508 325.923 82.0762 327.84 85.2032 328.861 88.408 328.828 94.486 328.828 100.627 325.505 104.608 321.522 107.319 318.788 108.378 314.822 107.391 311.1L121.417 298.891 161.84 255.985C163.477 254.207 163.362 251.438 161.584 249.802 161.566 249.786 161.549 249.77 161.531 249.754 160.59 248.757 159.257 248.225 157.888 248.3ZM103.078 320.229C99.814 323.444 94.286 326.834 88.407 326.834 88.0003 326.834 87.6003 326.817 87.207 326.783 87.2018 326.781 87.1989 326.776 87.2006 326.77 87.2016 326.767 87.204 326.765 87.207 326.764 89.9147 325.731 92.3636 324.118 94.382 322.038 94.7515 321.626 94.7172 320.993 94.3055 320.624 93.8938 320.254 93.2605 320.288 92.891 320.7 90.5145 323.102 87.5083 324.785 84.218 325.555 84.2125 325.555 84.2076 325.551 84.2071 325.546 84.2069 325.543 84.2079 325.54 84.21 325.538 86.7707 323.471 88.3602 320.436 88.6 317.154 88.738 316.114 88.776 315.1 88.812 314.12 88.912 311.503 88.985 309.437 90.728 307.637 94.2021 304.193 99.8107 304.217 103.255 307.691 103.348 307.785 103.439 307.881 103.528 307.979 106.668 311.529 106.47 316.919 103.078 320.229ZM106.648 309.1C105.675 307.082 104.086 305.425 102.11 304.37L111.081 294.056 117.062 300.036ZM120.033 297.451 118.574 298.721 112.4 292.543 113.638 291.121 114.454 290.354 120.772 296.671ZM160.376 254.623 122.139 295.215 115.909 288.985 156.5 250.9C157.566 249.985 159.17 250.096 160.1 251.149 161.731 252.874 160.717 254.251 160.376 254.623Z"/></g></svg>