<svg width="76" height="76" xmlns="http://www.w3.org/2000/svg" xmlns:xlink="http://www.w3.org/1999/xlink" xml:space="preserve" overflow="hidden"><g transform="translate(-265 -241)"><path d="M332.203 246.779C331.383 246.817 330.602 247.144 330 247.702L296.056 279.554 286.506 290.525C285.684 290.271 284.828 290.142 283.967 290.14 281.697 290.134 279.517 291.031 277.91 292.635 275.456 295.168 276.169 298.177 275.773 301.106 275.496 304.392 273.284 307.196 270.152 308.231 272.185 309.749 274.661 310.557 277.198 310.531 282.01 310.531 286.871 307.9 290.023 304.747 292.169 302.582 293.008 299.442 292.226 296.496L303.33 286.83 335.332 252.863C336.627 251.455 336.536 249.264 335.129 247.968 335.115 247.955 335.101 247.943 335.087 247.93 334.342 247.141 333.287 246.72 332.203 246.779ZM288.812 303.723C286.228 306.268 281.851 308.952 277.197 308.952 276.875 308.952 276.559 308.938 276.247 308.912 276.243 308.91 276.241 308.906 276.242 308.902 276.243 308.899 276.245 308.897 276.247 308.896 278.391 308.078 280.33 306.802 281.927 305.155 282.22 304.829 282.193 304.328 281.867 304.035 281.541 303.743 281.04 303.77 280.747 304.096 278.866 305.998 276.486 307.33 273.881 307.939 273.877 307.94 273.873 307.937 273.872 307.932 273.872 307.93 273.873 307.928 273.875 307.926 275.902 306.29 277.16 303.887 277.35 301.289 277.459 300.465 277.489 299.663 277.518 298.887 277.597 296.815 277.655 295.179 279.035 293.754 281.785 291.028 286.225 291.047 288.952 293.797 289.026 293.871 289.098 293.947 289.168 294.025 291.654 296.836 291.497 301.102 288.812 303.723ZM291.638 294.913C290.868 293.315 289.61 292.003 288.045 291.168L295.147 283.003 299.882 287.737ZM302.234 285.69 301.079 286.696 296.192 281.805 297.172 280.679 297.818 280.072 302.819 285.073ZM334.173 251.785 303.902 283.92 298.97 278.988 331.104 248.837C331.948 248.113 333.218 248.201 333.954 249.035 335.245 250.4 334.443 251.49 334.173 251.785Z"/></g></svg>