<svg width="96" height="96" xmlns="http://www.w3.org/2000/svg" xmlns:xlink="http://www.w3.org/1999/xlink" xml:space="preserve" overflow="hidden"><g transform="translate(-592 -312)"><path d="M674.6 368.212 646.266 339.886C645.522 339.118 644.502 338.681 643.433 338.672L624.816 338.672C624.562 338.672 624.316 338.687 624.064 338.71 623.169 336.574 621.271 335.021 619 334.567L612.236 333.215C610.093 332.794 608.472 331.028 608.236 328.856L607.721 324.223C607.66 323.674 607.166 323.279 606.617 323.34 606.068 323.401 605.672 323.895 605.733 324.444L606.248 329.077C606.577 332.115 608.843 334.586 611.84 335.177L618.603 336.529C620.102 336.828 621.382 337.798 622.075 339.161 618.869 340.319 616.729 343.357 616.716 346.766L616.716 365.278C616.686 366.355 617.13 367.39 617.93 368.111L646.26 396.438C647.816 398.031 650.368 398.06 651.96 396.505 651.983 396.483 652.005 396.461 652.027 396.438L674.6 373.878C676.118 372.294 676.118 369.796 674.6 368.212ZM673.186 372.463 650.619 395.023C649.844 395.835 648.558 395.864 647.746 395.089 647.724 395.068 647.701 395.046 647.68 395.023L619.35 366.7 619.3 366.65 619.25 366.606C618.889 366.261 618.695 365.777 618.719 365.278L618.719 346.765C618.729 344.236 620.294 341.973 622.658 341.073L623.15 343.53C622.828 343.703 622.532 343.92 622.27 344.175 620.71 345.739 620.713 348.272 622.277 349.832 623.841 351.392 626.373 351.389 627.934 349.825 629.494 348.261 629.491 345.728 627.927 344.168 627.177 343.42 626.16 343 625.1 343L625.085 343 624.62 340.676C624.685 340.676 624.749 340.667 624.814 340.667L643.433 340.667C643.971 340.676 644.483 340.903 644.851 341.295L673.181 369.622C673.916 370.425 673.916 371.655 673.181 372.458ZM625.495 345.042C626.589 345.25 627.308 346.305 627.1 347.4 626.893 348.494 625.837 349.213 624.742 349.005 623.648 348.797 622.929 347.742 623.137 346.647 623.203 346.3 623.359 345.977 623.589 345.709L623.753 346.53C623.848 346.995 624.257 347.33 624.732 347.33 624.799 347.33 624.866 347.324 624.932 347.311 625.474 347.203 625.825 346.676 625.716 346.134Z" stroke="#000000" stroke-width="3"/></g></svg>