<svg width="96" height="96" xmlns="http://www.w3.org/2000/svg" xmlns:xlink="http://www.w3.org/1999/xlink" xml:space="preserve" overflow="hidden"><g transform="translate(-400 -299)"><path d="M474.2 373.2C470.7 376.7 465 376.7 461.5 373.2L453 364.7C450.3 362 449.6 357.9 451.3 354.5L458.7 361.9C459.9 363 461.7 363 462.9 361.8 464 360.7 464.1 358.8 463 357.6L455.6 350.2C459 348.6 463.1 349.3 465.8 352L474.3 360.5C477.7 364 477.7 369.6 474.2 373.2ZM430.3 342 421.8 333.5C418.3 330 418.3 324.3 421.8 320.8 425.3 317.3 431 317.3 434.5 320.8L443 329.3C445.7 332 446.4 336.1 444.8 339.5L438.8 333.5C437.6 332.4 435.8 332.4 434.6 333.6 433.5 334.7 433.4 336.6 434.5 337.8L440.5 343.8C437.1 345.4 433 344.7 430.3 342ZM478.4 356.2 469.9 347.7C464.9 342.6 456.9 341.8 451 345.8L449.2 344C453.1 338.1 452.3 330.2 447.3 325.1L438.8 316.6C432.9 311.2 423.7 311.4 418 317 412.3 322.7 412.1 331.8 417.6 337.8L426.1 346.3C431.1 351.4 439.1 352.2 445 348.2L446.8 350C442.9 355.9 443.7 363.8 448.7 368.9L457.2 377.4C463.1 382.9 472.3 382.7 478 377 483.7 371.3 483.9 362.1 478.4 356.2L478.4 356.2Z" stroke="#000000" stroke-width="0.666667" fill="#FFAA00"/></g></svg>