<svg width="640" height="512" xmlns="http://www.w3.org/2000/svg" xmlns:xlink="http://www.w3.org/1999/xlink" xml:space="preserve" overflow="hidden"><defs><clipPath id="clip0"><rect x="64" y="113" width="640" height="512"/></clipPath></defs><g clip-path="url(#clip0)" transform="translate(-64 -113)"><path d="M102.8 118.1C92.4 109.9 77.3 111.8 69.1 122.2 60.9 132.6 62.8 147.7 73.2 155.9L665.2 619.9C675.6 628.1 690.7 626.2 698.9 615.8 707.1 605.4 705.2 590.3 694.8 582.1L553.3 471.2 643.8 380.7C700.3 324.2 700.3 232.7 643.8 176.2 593.8 126.2 515 119.7 457.5 160.8L455.9 161.9C441.5 172.2 438.2 192.2 448.5 206.5 458.8 220.8 478.8 224.2 493.1 213.9L494.7 212.8C526.8 189.9 570.7 193.5 598.5 221.4 630 252.9 630 303.9 598.5 335.4L502.5 431.4 470.6 406.4C494.9 352.6 484.1 288.1 441 245 388.8 192.7 306.5 188.8 249.7 233.3L102.8 118.1ZM303 275C333.1 260.1 370.7 265.1 395.8 290.3 415.8 310.3 423.3 338.6 417.5 364.8L303 275ZM470.6 529.4 284.9 383C282.8 422.8 297.1 463.1 327.1 493 366 531.9 421.5 544 470.7 529.3ZM180.6 300.9 124.2 357.3C67.7 413.8 67.7 505.3 124.2 561.8 174.2 611.8 253 618.3 310.5 577.2L312.1 576.1C326.5 565.8 329.8 545.8 319.5 531.5 309.2 517.2 289.2 513.8 274.9 524.1L273.3 525.2C241.2 548.1 197.3 544.5 169.5 516.6 138 485 138 434 169.5 402.5L231.3 340.7 180.7 300.8Z" stroke="#000000" fill="#FFAA00"/></g></svg>