<svg width="96" height="96" xmlns="http://www.w3.org/2000/svg" xmlns:xlink="http://www.w3.org/1999/xlink" xml:space="preserve" overflow="hidden"><g transform="translate(-592 -312)"><path d="M680.1 321.4C678 319.3 675.6 319.9 674.7 320.8L634.3 358.2 625.3 369.3C624.7 370.4 625.3 372.3 626.7 373.7L627.6 374.6C629 376 630.9 376.7 632 376L643.1 367 680.7 326.6C681.7 325.5 682.1 323.5 680.1 321.4Z" stroke="#000000" stroke-width="0.666667" fill="#FFAA00"/><path d="M608.3 377.7C605.2 380.9 606.1 384.7 605.6 388.4 605 394.8 599.9 396.9 598.5 397.4 606.7 403.5 617.6 399 623.6 393 627.8 388.8 627.8 381.9 623.6 377.7 619.4 373.5 612.5 373.5 608.3 377.7Z" stroke="#000000" stroke-width="0.666667" fill="#FFAA00"/></g></svg>