<svg width="96" height="96" xmlns="http://www.w3.org/2000/svg" xmlns:xlink="http://www.w3.org/1999/xlink" xml:space="preserve" overflow="hidden"><g transform="translate(-592 -312)"><path d="M670 363C667.2 363 665 361.4 665 359.5 665 357.6 667.2 356 670 356 672.8 356 675 357.6 675 359.5 675 361.4 672.8 363 670 363ZM665 374C662.2 374 660 372.4 660 370.5 660 368.6 662.2 367 665 367 667.8 367 670 368.6 670 370.5 670 372.4 667.8 374 665 374ZM654 346C651.2 346 649 344.4 649 342.5 649 340.6 651.2 339 654 339 656.8 339 659 340.6 659 342.5 659 344.4 656.8 346 654 346ZM654 380C651.2 380 649 378.4 649 376.5 649 374.6 651.2 373 654 373 656.8 373 659 374.6 659 376.5 659 378.4 656.8 380 654 380ZM640 383C637.2 383 635 381.4 635 379.5 635 377.6 637.2 376 640 376 642.8 376 645 377.6 645 379.5 645 381.4 642.8 383 640 383ZM634.6 342.6C636.2 341 638.3 340.7 639.4 341.8 640.5 342.9 640.1 345 638.6 346.6 637 348.2 634.9 348.5 633.8 347.4 632.6 346.3 633 344.1 634.6 342.6ZM626 381C623.2 381 621 379.4 621 377.5 621 375.6 623.2 374 626 374 628.8 374 631 375.6 631 377.5 631 379.4 628.8 381 626 381ZM665 346C667.8 346 670 347.6 670 349.5 670 351.4 667.8 353 665 353 662.2 353 660 351.4 660 349.5 660 347.6 662.2 346 665 346ZM640 332C617.3 332 620.9 340.9 623 343L628 348C631.2 351.3 627.3 355 623.6 353.4L611.1 348C602.3 344.2 600 354.9 600 360 600 375.5 617.9 388 640 388 662.1 388 680 375.5 680 360 680 344.5 662.1 332 640 332Z" stroke="#000000" fill="#FFAA00"/></g></svg>