<svg width="330" height="330" xmlns="http://www.w3.org/2000/svg" xmlns:xlink="http://www.w3.org/1999/xlink" xml:space="preserve" overflow="hidden"><g transform="translate(-1273 -499)"><path d="M1438 554C1498.75 554 1548 603.249 1548 664 1548 724.751 1498.75 774 1438 774 1377.25 774 1328 724.751 1328 664 1328.07 603.277 1377.28 554.068 1438 554M1438 533.375C1365.86 533.375 1307.37 591.858 1307.37 664 1307.37 736.142 1365.86 794.625 1438 794.625 1510.14 794.625 1568.62 736.142 1568.62 664 1568.62 591.858 1510.14 533.375 1438 533.375Z" stroke="#000000" stroke-width="2.29167" fill="#FFAA00"/><text fill="#FFAA00" font-family="Segoe UI Black,Segoe UI Black_MSFontService,sans-serif" font-weight="900" font-size="110" transform="matrix(1 0 0 1 1349.36 709)">LW</text></g></svg>