<svg width="96" height="96" xmlns="http://www.w3.org/2000/svg" xmlns:xlink="http://www.w3.org/1999/xlink" xml:space="preserve" overflow="hidden"><g transform="translate(-378 -360)"><path d="M426 370C405.007 369.994 387.984 387.007 387.978 408 387.972 428.993 404.985 446.016 425.978 446.022 446.971 446.028 463.994 429.015 464 408.022 464 408.018 464 408.014 464 408.01 464.011 387.029 447.011 370.011 426.03 370 426.02 370 426.01 370 426 370ZM426 444.021C406.112 444.027 389.984 427.909 389.978 408.021 389.972 388.133 406.09 372.005 425.978 371.999 445.866 371.993 461.994 388.111 462 407.999 462 408.004 462 408.008 462 408.013 461.98 427.889 445.876 443.998 426 444.024Z" fill="#FFFFFF"/><path d="M426.5 390.514 424.5 390.514 424.5 407 408 407 408 409 424.5 409 424.5 425.514 426.5 425.514 426.5 409 443 409 443 407 426.5 407 426.5 390.514Z" fill="#FFFFFF"/></g></svg>