<svg width="96" height="96" xmlns="http://www.w3.org/2000/svg" xmlns:xlink="http://www.w3.org/1999/xlink" xml:space="preserve" overflow="hidden"><g transform="translate(-526 -468)"><path d="M574 530C566.3 530 560 523.7 560 516 560 508.3 566.3 502 574 502 581.7 502 588 508.3 588 516 588 523.7 581.7 530 574 530ZM574 478C553 478 536 495 536 516 536 537 553 554 574 554 595 554 612 537 612 516 612 495 595 478 574 478Z" fill="#447CF9"/><path d="M574 520C571.8 520 570 518.2 570 516 570 513.8 571.8 512 574 512 576.2 512 578 513.8 578 516 578 518.2 576.2 520 574 520ZM574 506C568.5 506 564 510.5 564 516 564 521.5 568.5 526 574 526 579.5 526 584 521.5 584 516 584 510.5 579.5 506 574 506Z" fill="#447CF9"/></g></svg>