<svg width="96" height="77" xmlns="http://www.w3.org/2000/svg" xmlns:xlink="http://www.w3.org/1999/xlink" xml:space="preserve" overflow="hidden"><defs><clipPath id="clip0"><rect x="373" y="287" width="96" height="77"/></clipPath></defs><g clip-path="url(#clip0)" transform="translate(-373 -287)"><path d="M5.82 0.765C4.26-0.465 1.995-0.18 0.765 1.38-0.465 2.94-0.18 5.205 1.38 6.435L90.18 76.035C91.74 77.265 94.005 76.98 95.235 75.42 96.465 73.86 96.18 71.595 94.62 70.365L73.395 53.73 86.97 40.155C95.445 31.68 95.445 17.955 86.97 9.48 79.47 1.98 67.65 1.005 59.025 7.17L58.785 7.335C56.625 8.88 56.13 11.88 57.675 14.025 59.22 16.17 62.22 16.68 64.365 15.135L64.605 14.97C69.42 11.535 76.005 12.075 80.175 16.26 84.9 20.985 84.9 28.635 80.175 33.36L65.775 47.76 60.99 44.01C64.635 35.94 63.015 26.265 56.55 19.8 48.72 11.955 36.375 11.37 27.855 18.045L5.82 0.765ZM35.85 24.3C40.365 22.065 46.005 22.815 49.77 26.595 52.77 29.595 53.895 33.84 53.025 37.77L35.85 24.3ZM60.99 62.46 33.135 40.5C32.82 46.47 34.965 52.515 39.465 57 45.3 62.835 53.625 64.65 61.005 62.445ZM17.49 28.185 9.03 36.645C0.555 45.12 0.555 58.845 9.03 67.32 16.53 74.82 28.35 75.795 36.975 69.63L37.215 69.465C39.375 67.92 39.87 64.92 38.325 62.775 36.78 60.63 33.78 60.12 31.635 61.665L31.395 61.83C26.58 65.265 19.995 64.725 15.825 60.54 11.1 55.8 11.1 48.15 15.825 43.425L25.095 34.155 17.505 28.17Z" stroke="#000000" stroke-width="1.68421" fill="#FFFFFF" transform="matrix(1 0 0 1.0026 373 287)"/></g></svg>