<svg width="96" height="96" xmlns="http://www.w3.org/2000/svg" xmlns:xlink="http://www.w3.org/1999/xlink" xml:space="preserve" overflow="hidden"><g transform="translate(-738 -312)"><path d="M786 352C781.582 352 778 355.582 778 360 778 364.418 781.582 368 786 368 790.418 368 794 364.418 794 360 793.995 355.584 790.416 352.005 786 352ZM786 366C782.686 366 780 363.314 780 360 780 356.686 782.686 354 786 354 789.314 354 792 356.686 792 360 791.997 363.312 789.312 365.997 786 366Z" fill="#FFFFFF"/><path d="M827 359 819.975 359C819.426 341.021 804.979 326.574 787 326.025L787 319 785 319 785 326.025C767.021 326.574 752.574 341.021 752.025 359L745 359 745 361 752.025 361C752.574 378.979 767.021 393.426 785 393.975L785 401 787 401 787 393.975C804.979 393.426 819.426 378.979 819.975 361L827 361ZM817.975 359 809.975 359C809.44 346.539 799.461 336.56 787 336.025L787 328.025C803.876 328.571 817.429 342.124 817.975 359ZM807.975 361C807.445 372.357 798.357 381.445 787 381.975L787 372 785 372 785 381.975C773.643 381.445 764.555 372.357 764.025 361L774 361 774 359 764.025 359C764.555 347.643 773.643 338.555 785 338.025L785 348 787 348 787 338.025C798.357 338.555 807.445 347.643 807.975 359L798 359 798 361ZM785 328.025 785 336.025C772.539 336.56 762.56 346.539 762.025 359L754.025 359C754.571 342.124 768.124 328.571 785 328.025ZM754.025 361 762.025 361C762.56 373.461 772.539 383.44 785 383.975L785 391.975C768.124 391.429 754.571 377.876 754.025 361ZM787 391.975 787 383.975C799.461 383.44 809.44 373.461 809.975 361L817.975 361C817.429 377.876 803.876 391.429 787 391.975Z" fill="#FFFFFF"/></g></svg>