<svg width="57" height="57" xmlns="http://www.w3.org/2000/svg" xmlns:xlink="http://www.w3.org/1999/xlink" xml:space="preserve" overflow="hidden"><g transform="translate(-630 -241)"><path d="M680.402 245.334C679.787 245.363 679.202 245.608 678.75 246.027L653.292 269.916 646.13 278.144C645.513 277.954 644.871 277.856 644.225 277.855 642.522 277.85 640.888 278.524 639.683 279.726 637.842 281.626 638.377 283.882 638.08 286.079 637.872 288.544 636.213 290.647 633.864 291.423 635.389 292.561 637.246 293.167 639.148 293.148 642.757 293.148 646.404 291.175 648.767 288.81 650.377 287.187 651.006 284.832 650.42 282.622L658.748 275.373 682.749 249.897C683.721 248.842 683.652 247.198 682.597 246.226 682.586 246.216 682.576 246.207 682.565 246.198 682.006 245.606 681.215 245.29 680.402 245.334ZM647.859 288.042C645.921 289.951 642.639 291.964 639.148 291.964 638.906 291.964 638.669 291.954 638.435 291.934 638.432 291.933 638.431 291.929 638.432 291.926 638.432 291.924 638.434 291.923 638.435 291.922 640.043 291.309 641.497 290.351 642.696 289.116 642.915 288.872 642.895 288.496 642.65 288.276 642.406 288.057 642.03 288.077 641.81 288.322 640.399 289.748 638.614 290.747 636.661 291.205 636.657 291.205 636.655 291.202 636.654 291.199 636.654 291.197 636.655 291.196 636.656 291.194 638.176 289.967 639.12 288.165 639.263 286.216 639.344 285.599 639.367 284.997 639.388 284.415 639.448 282.861 639.491 281.634 640.526 280.566 642.589 278.521 645.919 278.535 647.964 280.598 648.019 280.654 648.073 280.711 648.126 280.769 649.991 282.877 649.873 286.077 647.859 288.042ZM649.979 281.434C649.401 280.236 648.457 279.253 647.284 278.626L652.611 272.502 656.162 276.053ZM657.926 274.518 657.06 275.272 653.394 271.604 654.129 270.759 654.613 270.304 658.365 274.055ZM681.88 249.089 659.176 273.19 655.477 269.491 679.578 246.878C680.211 246.335 681.163 246.401 681.716 247.026 682.684 248.05 682.082 248.868 681.88 249.089Z"/></g></svg>