<svg width="96" height="96" xmlns="http://www.w3.org/2000/svg" xmlns:xlink="http://www.w3.org/1999/xlink" xml:space="preserve" overflow="hidden"><g transform="translate(-785 -298)"><path d="M869.888 305.3C868.852 305.348 867.866 305.761 867.105 306.466L824.228 346.7 812.166 360.558C811.127 360.237 810.045 360.074 808.958 360.072 806.091 360.064 803.338 361.198 801.308 363.223 798.208 366.423 799.108 370.223 798.608 373.923 798.258 378.074 795.464 381.616 791.508 382.923 794.076 384.84 797.203 385.861 800.408 385.828 806.486 385.828 812.627 382.505 816.608 378.522 819.319 375.788 820.378 371.822 819.391 368.1L833.417 355.891 873.84 312.985C875.477 311.207 875.362 308.438 873.584 306.802 873.566 306.786 873.549 306.77 873.531 306.754 872.59 305.757 871.257 305.225 869.888 305.3ZM815.078 377.229C811.814 380.444 806.286 383.834 800.407 383.834 800 383.834 799.6 383.817 799.207 383.783 799.202 383.781 799.199 383.776 799.201 383.77 799.202 383.767 799.204 383.765 799.207 383.764 801.915 382.731 804.364 381.118 806.382 379.038 806.752 378.626 806.717 377.993 806.305 377.624 805.894 377.254 805.26 377.288 804.891 377.7 802.515 380.102 799.508 381.785 796.218 382.555 796.213 382.555 796.208 382.551 796.207 382.546 796.207 382.543 796.208 382.54 796.21 382.538 798.771 380.471 800.36 377.436 800.6 374.154 800.738 373.114 800.776 372.1 800.812 371.12 800.912 368.503 800.985 366.437 802.728 364.637 806.202 361.193 811.811 361.217 815.255 364.691 815.348 364.785 815.439 364.881 815.528 364.979 818.668 368.529 818.47 373.919 815.078 377.229ZM818.648 366.1C817.675 364.082 816.086 362.425 814.11 361.37L823.081 351.056 829.062 357.036ZM832.033 354.451 830.574 355.721 824.4 349.543 825.638 348.121 826.454 347.354 832.772 353.671ZM872.376 311.623 834.139 352.215 827.909 345.985 868.5 307.9C869.567 306.985 871.17 307.096 872.1 308.149 873.731 309.874 872.717 311.251 872.376 311.623Z"/></g></svg>