<svg width="640" height="512" xmlns="http://www.w3.org/2000/svg" xmlns:xlink="http://www.w3.org/1999/xlink" xml:space="preserve" overflow="hidden"><g transform="translate(-320 -104)"><path d="M899.8 371.7C956.3 315.2 956.3 223.7 899.8 167.2 849.8 117.2 771 110.7 713.5 151.8L711.9 152.9C697.5 163.2 694.2 183.2 704.5 197.5 714.8 211.8 734.8 215.2 749.1 204.9L750.7 203.8C782.8 180.9 826.7 184.5 854.5 212.4 886 243.9 886 294.9 854.5 326.4L742.3 438.8C710.8 470.3 659.8 470.3 628.3 438.8 600.4 410.9 596.8 367 619.7 335L620.8 333.4C631.1 319 627.7 299 613.4 288.8 599.1 278.6 579 281.9 568.8 296.2L567.7 297.8C526.5 355.2 533 434 583 484 639.5 540.5 731 540.5 787.5 484L899.8 371.7ZM380.2 348.3C323.7 404.8 323.7 496.3 380.2 552.8 430.2 602.8 509 609.3 566.5 568.2L568.1 567.1C582.5 556.8 585.8 536.8 575.5 522.5 565.2 508.2 545.2 504.8 530.9 515.1L529.3 516.2C497.2 539.1 453.3 535.5 425.5 507.6 394 476 394 425 425.5 393.5L537.7 281.2C569.2 249.7 620.2 249.7 651.7 281.2 679.6 309.1 683.2 353 660.3 385.1L659.2 386.7C648.9 401.1 652.3 421.1 666.6 431.3 680.9 441.5 701 438.2 711.2 423.9L712.3 422.3C753.5 364.8 747 286 697 236 640.5 179.5 549 179.5 492.5 236L380.2 348.3Z" stroke="#000000" fill="#FFAA00"/></g></svg>