<svg width="96" height="96" xmlns="http://www.w3.org/2000/svg" xmlns:xlink="http://www.w3.org/1999/xlink" xml:space="preserve" overflow="hidden"><g transform="translate(-576 -376)"><path d="M666.1 386.14C667.229 384.928 667.162 383.03 665.95 381.9 664.798 380.826 663.012 380.826 661.86 381.9L631 412.76 631 400.2C631 398.543 629.657 397.2 628 397.2 626.343 397.2 625 398.543 625 400.2L625 420C625 421.657 626.343 423 628 423L647.8 423C648.595 422.999 649.358 422.683 649.92 422.12 650.54 421.579 650.927 420.819 651 420 650.909 418.304 649.498 416.982 647.8 417L635.24 417Z" fill="#FFFFFF"/><path d="M581.88 461.88C580.75 463.092 580.818 464.991 582.03 466.12 583.182 467.194 584.968 467.194 586.12 466.12L617 435.26 617 447.82C617 449.477 618.343 450.82 620 450.82 621.657 450.82 623 449.477 623 447.82L623 428C623 426.343 621.657 425 620 425L600.18 425C599.382 425.006 598.619 425.33 598.06 425.9 596.825 426.902 596.636 428.716 597.639 429.951 598.253 430.709 599.21 431.103 600.18 431L612.74 431Z" fill="#FFFFFF"/></g></svg>