<svg width="96" height="96" xmlns="http://www.w3.org/2000/svg" xmlns:xlink="http://www.w3.org/1999/xlink" xml:space="preserve" overflow="hidden"><g transform="translate(-265 -296)"><path d="M353 301 333.2 301C331.543 301 330.2 302.343 330.2 304 330.2 305.657 331.543 307 333.2 307L345.76 307 276 376.76 276 364.2C276 362.543 274.657 361.2 273 361.2 271.343 361.2 270 362.543 270 364.2L270 384C270 385.657 271.343 387 273 387L292.8 387C294.457 387 295.8 385.657 295.8 384 295.8 382.343 294.457 381 292.8 381L280.24 381 350 311.24 350 323.8C350 325.457 351.343 326.8 353 326.8 354.657 326.8 356 325.457 356 323.8L356 304C356 302.343 354.657 301 353 301Z" fill="#FFFFFF"/></g></svg>