<svg width="96" height="96" xmlns="http://www.w3.org/2000/svg" xmlns:xlink="http://www.w3.org/1999/xlink" xml:space="preserve" overflow="hidden"><g transform="translate(-592 -312)"><path d="M653.9 374.4C661.7 366.9 662.1 354.5 654.7 346.5 662.6 350.6 669.1 356.9 672.9 361.1 668.9 365 662.1 370.8 653.9 374.4ZM614.6 353.8C617.9 351 621.4 348.6 625.2 346.6 617.9 354.6 618.3 366.9 626.1 374.4 617.9 370.8 611 365 607.1 361.1 609.4 358.5 611.9 356.1 614.6 353.8L614.6 353.8ZM640 376C631.2 376 624 368.8 624 360 624 351.2 631.2 344 640 344 648.8 344 656 351.2 656 360 656 368.8 648.8 376 640 376ZM678.9 358.3C673.1 351.5 657.9 336 640 336 622.1 336 606.9 351.5 601.1 358.3 599.6 360.1 599.7 362.6 601.3 364.3 607.2 370.5 622.3 384 640 384 657.7 384 672.8 370.5 678.8 364.3 680.3 362.7 680.4 360.1 678.9 358.3Z"/><path d="M650 360C650 365.523 645.523 370 640 370 634.477 370 630 365.523 630 360 630 354.477 634.477 350 640 350 645.523 350 650 354.477 650 360Z"/></g></svg>