<svg width="96" height="96" xmlns="http://www.w3.org/2000/svg" xmlns:xlink="http://www.w3.org/1999/xlink" xml:space="preserve" overflow="hidden"><g transform="translate(-458 -469)"><path d="M530 540.6 516.31 518.78C516.065 518.38 515.629 518.137 515.16 518.14 514.689 518.14 514.251 518.382 514 518.78L510 525.2 518.58 539.08C519.306 540.178 519.462 541.557 519 542.79L528.7 542.79C529.494 542.83 530.17 542.218 530.21 541.424 530.224 541.134 530.151 540.847 530 540.6Z" stroke="#000000" stroke-width="0.666667" fill="#595959"/><path d="M515.1 540.73 493.35 505.34C493.071 504.979 492.636 504.775 492.18 504.79L492 504.79 491.82 504.79C491.364 504.775 490.929 504.979 490.65 505.34L468.9 540.73C468.592 541.161 468.549 541.728 468.79 542.2 469.033 542.628 469.513 542.862 470 542.79L514 542.79C514.487 542.862 514.967 542.628 515.21 542.2 515.451 541.728 515.408 541.161 515.1 540.73ZM495.64 521.92 492.18 525 488.72 521.92 483 525.38 492 510.79 500.76 525Z" stroke="#000000" stroke-width="0.666667" fill="#595959"/><path d="M482 507C482 508.657 480.657 510 479 510 477.343 510 476 508.657 476 507 476 505.343 477.343 504 479 504 480.657 504 482 505.343 482 507Z" stroke="#000000" stroke-width="0.666667" fill="#595959"/><path d="M551 482 471 482 471 493 460 493 460 554.79 540 554.79 540 543.79 551 543.79ZM534 549 466 549 466 498.79 534 498.79ZM545 538 540 538 540 493 477 493 477 488 545 488Z" stroke="#000000" stroke-width="0.666667" fill="#595959"/></g></svg>