<svg width="96" height="96" xmlns="http://www.w3.org/2000/svg" xmlns:xlink="http://www.w3.org/1999/xlink" xml:space="preserve" overflow="hidden"><g transform="translate(-326 -454)"><path d="M398 525.6 384.31 503.78C384.065 503.38 383.629 503.137 383.16 503.14 382.689 503.14 382.251 503.382 382 503.78L378 510.2 386.58 524.08C387.306 525.178 387.462 526.557 387 527.79L396.7 527.79C397.494 527.83 398.17 527.218 398.21 526.424 398.224 526.134 398.151 525.847 398 525.6Z" stroke="#000000" stroke-width="0.666667" fill="#FFAA00"/><path d="M383.1 525.73 361.35 490.34C361.071 489.979 360.636 489.775 360.18 489.79L360 489.79 359.82 489.79C359.364 489.775 358.929 489.979 358.65 490.34L336.9 525.73C336.592 526.161 336.549 526.728 336.79 527.2 337.033 527.628 337.513 527.862 338 527.79L382 527.79C382.487 527.862 382.967 527.628 383.21 527.2 383.451 526.728 383.408 526.161 383.1 525.73ZM363.64 506.92 360.18 510 356.72 506.92 351 510.38 360 495.79 368.76 510Z" stroke="#000000" stroke-width="0.666667" fill="#FFAA00"/><path d="M350 492C350 493.657 348.657 495 347 495 345.343 495 344 493.657 344 492 344 490.343 345.343 489 347 489 348.657 489 350 490.343 350 492Z" stroke="#000000" stroke-width="0.666667" fill="#FFAA00"/><path d="M419 467 339 467 339 478 328 478 328 539.79 408 539.79 408 528.79 419 528.79ZM402 534 334 534 334 483.79 402 483.79ZM413 523 408 523 408 478 345 478 345 473 413 473Z" stroke="#000000" stroke-width="0.666667" fill="#FFAA00"/></g></svg>