<svg width="96" height="87" xmlns="http://www.w3.org/2000/svg" xmlns:xlink="http://www.w3.org/1999/xlink" xml:space="preserve" overflow="hidden"><g transform="translate(-264 -286)"><path d="M86.97 40.155C95.445 31.68 95.445 17.955 86.97 9.48 79.47 1.98 67.65 1.005 59.025 7.17L58.785 7.335C56.625 8.88 56.13 11.88 57.675 14.025 59.22 16.17 62.22 16.68 64.365 15.135L64.605 14.97C69.42 11.535 76.005 12.075 80.175 16.26 84.9 20.985 84.9 28.635 80.175 33.36L63.345 50.22C58.62 54.945 50.97 54.945 46.245 50.22 42.06 46.035 41.52 39.45 44.955 34.65L45.12 34.41C46.665 32.25 46.155 29.25 44.01 27.72 41.865 26.19 38.85 26.685 37.32 28.83L37.155 29.07C30.975 37.68 31.95 49.5 39.45 57 47.925 65.475 61.65 65.475 70.125 57L86.97 40.155ZM9.03 36.645C0.555 45.12 0.555 58.845 9.03 67.32 16.53 74.82 28.35 75.795 36.975 69.63L37.215 69.465C39.375 67.92 39.87 64.92 38.325 62.775 36.78 60.63 33.78 60.12 31.635 61.665L31.395 61.83C26.58 65.265 19.995 64.725 15.825 60.54 11.1 55.8 11.1 48.15 15.825 43.425L32.655 26.58C37.38 21.855 45.03 21.855 49.755 26.58 53.94 30.765 54.48 37.35 51.045 42.165L50.88 42.405C49.335 44.565 49.845 47.565 51.99 49.095 54.135 50.625 57.15 50.13 58.68 47.985L58.845 47.745C65.025 39.12 64.05 27.3 56.55 19.8 48.075 11.325 34.35 11.325 25.875 19.8L9.03 36.645Z" stroke="#000000" stroke-width="1.91045" fill="#FFFFFF" transform="matrix(1 0 0 1.13281 264 286)"/></g></svg>