<svg width="330" height="330" xmlns="http://www.w3.org/2000/svg" xmlns:xlink="http://www.w3.org/1999/xlink" xml:space="preserve" overflow="hidden"><g transform="translate(-1606 -499)"><path d="M1771 554C1831.75 554 1881 603.249 1881 664 1881 724.751 1831.75 774 1771 774 1710.25 774 1661 724.751 1661 664 1661.07 603.277 1710.28 554.068 1771 554M1771 533.375C1698.86 533.375 1640.38 591.858 1640.38 664 1640.38 736.142 1698.86 794.625 1771 794.625 1843.14 794.625 1901.62 736.142 1901.62 664 1901.62 591.858 1843.14 533.375 1771 533.375Z" stroke="#000000" stroke-width="2.29167" fill="#FFAA00"/><text fill="#FFAA00" font-family="Segoe UI Black,Segoe UI Black_MSFontService,sans-serif" font-weight="900" font-size="110" transform="matrix(1 0 0 1 1679.36 709)">LW</text></g></svg>