<svg width="96" height="96" xmlns="http://www.w3.org/2000/svg" xmlns:xlink="http://www.w3.org/1999/xlink" xml:space="preserve" overflow="hidden"><g transform="translate(-592 -312)"><path d="M640 322C619.007 321.994 601.984 339.007 601.978 360 601.972 380.993 618.985 398.016 639.978 398.022 660.971 398.028 677.994 381.015 678 360.022 678 360.018 678 360.014 678 360.01 678.011 339.029 661.011 322.011 640.03 322 640.02 322 640.01 322 640 322ZM640 396.021C620.112 396.027 603.984 379.909 603.978 360.021 603.972 340.133 620.09 324.005 639.978 323.999 659.866 323.993 675.994 340.111 676 359.999 676 360.004 676 360.008 676 360.013 675.98 379.889 659.876 395.998 640 396.024Z" fill="#FFFFFF"/><path d="M622 359 657 359 657 361 622 361Z" fill="#FFFFFF"/></g></svg>