<svg width="96" height="96" xmlns="http://www.w3.org/2000/svg" xmlns:xlink="http://www.w3.org/1999/xlink" xml:space="preserve" overflow="hidden"><g transform="translate(-616 -408)"><path d="M644.9 445 695 445 695 440C695 437.8 693.2 436 691 436L661 436 650 428.7C649.3 428.3 648.6 428 647.8 428L629 428C626.8 428 625 429.8 625 432L625 481C625 481.2 637.9 449.7 637.9 449.7 639.1 446.9 641.8 445 644.9 445Z" fill="#447CF9"/><path d="M703 453C703 450.9 701.5 449.2 699.4 449L644.9 449C643.4 449 642.1 449.9 641.5 451.2L628 484 689 484 702.6 454.8C702.9 454.2 703 453.6 703 453L703 453Z" fill="#447CF9"/></g></svg>