<svg width="330" height="330" xmlns="http://www.w3.org/2000/svg" xmlns:xlink="http://www.w3.org/1999/xlink" xml:space="preserve" overflow="hidden"><g transform="translate(-1990 -495)"><path d="M2155 550C2215.75 550 2265 599.249 2265 660 2265 720.751 2215.75 770 2155 770 2094.25 770 2045 720.751 2045 660 2045.07 599.277 2094.28 550.068 2155 550M2155 529.375C2082.86 529.375 2024.38 587.858 2024.38 660 2024.38 732.142 2082.86 790.625 2155 790.625 2227.14 790.625 2285.62 732.142 2285.62 660 2285.62 587.858 2227.14 529.375 2155 529.375Z" stroke="#000000" stroke-width="2.29167" fill="#FFAA00"/><text fill="#FFAA00" font-family="Segoe UI Black,Segoe UI Black_MSFontService,sans-serif" font-weight="900" font-size="110" transform="matrix(1 0 0 1 2058.87 704)">R</text><text fill="#FFAA00" font-family="Segoe UI Black,Segoe UI Black_MSFontService,sans-serif" font-weight="900" font-size="110" transform="matrix(1 0 0 1 2133.92 704)">W</text></g></svg>