<svg width="96" height="96" xmlns="http://www.w3.org/2000/svg" xmlns:xlink="http://www.w3.org/1999/xlink" xml:space="preserve" overflow="hidden"><g transform="translate(-640 -408)"><path d="M688 464C683.582 464 680 460.418 680 456 680 451.582 683.582 448 688 448 692.418 448 696 451.582 696 456 696 460.418 692.418 464 688 464ZM688 452C685.791 452 684 453.791 684 456 684 458.209 685.791 460 688 460 690.209 460 692 458.209 692 456 692 453.791 690.209 452 688 452Z" fill="#447CF9"/><path d="M723 454C721.951 436.227 707.773 422.049 690 421L690 415 686 415 686 421C668.227 422.049 654.049 436.227 653 454L647 454 647 458 653 458C654.049 475.773 668.227 489.951 686 491L686 497 690 497 690 491C707.773 489.951 721.951 475.773 723 458L729 458 729 454ZM708.16 458C707.199 467.603 699.603 475.199 690 476.16L690 468 686 468 686 476.16C676.397 475.199 668.801 467.603 667.84 458L676 458 676 454 667.84 454C668.801 444.397 676.397 436.801 686 435.84L686 444 690 444 690 435.84C699.603 436.801 707.199 444.397 708.16 454L700 454 700 458ZM686 427 686 431.83C674.189 432.822 664.817 442.19 663.82 454L659 454C660.028 439.536 671.536 428.028 686 427ZM659 458 663.83 458C664.822 469.811 674.19 479.183 686 480.18L686 485C671.536 483.972 660.028 472.464 659 458ZM690 485 690 480.18C701.814 479.187 711.187 469.814 712.18 458L717 458C715.972 472.464 704.464 483.972 690 485ZM712.18 454C711.187 442.186 701.814 432.813 690 431.82L690 427C704.464 428.028 715.972 439.536 717 454Z" fill="#447CF9"/></g></svg>